<?xml version="1.0" encoding="UTF-8"?>
<svg xmlns="http://www.w3.org/2000/svg" width="1400" height="900" viewBox="0 0 1400 900">
  <rect width="100%" height="100%" fill="#1e5f96"/>
  <g id="arizona-counties">
  <path d="M1202.07,741.36 L1202.01,797.77 L1202.01,798.61 L1201.94,807.97 L1201.96,810.40 L1201.96,834.29 L1201.93,835.87 L1201.93,844.33 L1201.86,846.71 L1201.76,896.40 L1201.75,896.40 L1201.72,924.34 L1138.68,924.08 L965.84,924.24 L967.25,857.63 L967.29,741.20 L1171.98,741.68 L1191.02,741.39 L1202.07,741.36 Z" fill="#4a9fd4" fill-opacity="0.92" stroke="#9ecae8" stroke-width="1.35" stroke-linejoin="round"/>
  <path d="M778.42,567.47 L778.01,611.04 L760.79,611.18 L726.15,611.15 L694.30,611.19 L676.19,601.07 L674.26,593.46 L674.19,727.91 L485.14,728.22 L485.26,607.40 L485.14,582.27 L485.24,550.78 L485.15,492.91 L485.17,478.26 L583.82,478.15 L651.08,495.04 L662.09,497.82 L664.04,495.01 L664.70,494.26 L665.33,493.94 L680.71,470.08 L731.35,475.61 L754.22,478.16 L792.78,478.16 L803.07,480.92 L800.12,491.54 L813.26,507.59 L810.40,515.49 L831.58,541.17 L838.40,544.63 L849.89,532.06 L868.87,567.44 L833.61,567.64 L830.42,567.54 L778.42,567.47 Z" fill="#3d8fc4" fill-opacity="0.92" stroke="#9ecae8" stroke-width="1.35" stroke-linejoin="round"/>
  <path d="M618.18,-23.80 L618.85,-23.80 L646.55,-23.88 L648.44,-23.86 L806.49,-23.94 L807.65,-23.94 L807.71,-23.94 L843.78,-23.85 L917.25,-24.22 L917.24,75.01 L917.24,174.55 L917.24,227.22 L917.25,434.09 L910.99,426.44 L900.96,433.44 L859.37,411.82 L850.94,415.37 L833.58,402.31 L809.10,406.86 L804.07,413.54 L804.77,405.00 L783.49,408.04 L796.58,400.81 L791.50,394.82 L782.68,399.15 L783.19,343.89 L745.42,343.76 L745.43,313.99 L740.18,314.84 L652.31,315.37 L652.11,286.06 L634.28,285.87 L634.54,267.29 L629.20,271.00 L611.68,270.15 L592.04,258.74 L582.00,259.62 L548.79,251.29 L545.03,245.14 L516.23,230.80 L511.81,226.14 L490.59,222.02 L487.41,222.11 L485.87,222.52 L485.10,222.53 L485.14,176.92 L489.05,166.28 L487.95,150.05 L481.75,136.83 L487.47,127.40 L502.33,128.61 L507.67,118.26 L518.06,115.75 L539.48,103.60 L575.71,95.91 L587.16,85.71 L594.26,86.43 L602.93,77.96 L600.36,67.09 L604.25,62.46 L597.81,53.32 L618.18,-23.80 Z" fill="#4a9fd4" fill-opacity="0.92" stroke="#9ecae8" stroke-width="1.35" stroke-linejoin="round"/>
  <path d="M967.71,612.87 L975.65,612.52 L966.34,596.02 L968.96,581.56 L985.78,573.97 L1042.71,567.47 L1042.71,548.90 L1060.92,550.42 L1076.31,563.73 L1127.22,536.23 L1127.17,632.29 L1174.32,698.82 L1172.27,724.18 L1191.02,741.39 L1171.98,741.68 L967.29,741.20 L967.34,728.31 L967.34,726.73 L967.68,726.74 L967.71,612.87 Z" fill="#3d8fc4" fill-opacity="0.92" stroke="#9ecae8" stroke-width="1.35" stroke-linejoin="round"/>
  <path d="M1202.21,682.61 L1202.12,696.69 L1202.12,697.26 L1202.12,697.88 L1202.12,698.70 L1202.07,741.36 L1191.02,741.39 L1172.27,724.18 L1174.32,698.82 L1127.17,632.29 L1127.22,536.23 L1151.87,515.35 L1202.29,515.23 L1202.25,583.07 L1202.22,583.64 L1202.24,584.26 L1202.26,584.31 L1202.19,610.45 L1202.21,622.32 L1202.21,622.40 L1202.23,629.86 L1202.24,630.03 L1202.15,633.79 L1202.15,633.96 L1202.21,682.61 L1202.21,682.61 Z" fill="#4a9fd4" fill-opacity="0.92" stroke="#9ecae8" stroke-width="1.35" stroke-linejoin="round"/>
  <path d="M268.82,572.89 L269.52,569.04 L274.27,562.60 L280.23,556.45 L284.12,550.26 L284.07,550.20 L283.34,548.29 L283.29,546.48 L285.01,531.79 L286.08,530.68 L286.89,530.24 L290.67,528.83 L291.05,526.99 L289.36,518.88 L286.18,510.56 L285.81,505.13 L287.00,491.93 L290.10,484.53 L296.17,479.23 L300.41,474.35 L300.97,471.81 L300.89,464.80 L301.23,463.34 L303.38,460.83 L304.86,459.73 L306.59,459.46 L308.39,459.72 L312.41,458.30 L319.92,455.03 L321.43,453.97 L332.87,448.09 L335.94,444.38 L346.21,436.04 L351.43,434.90 L351.73,434.58 L350.59,427.41 L368.51,434.67 L440.12,439.49 L450.75,426.88 L479.02,429.29 L485.21,424.96 L485.24,477.96 L485.17,478.26 L485.15,492.91 L485.24,550.78 L485.14,582.27 L380.74,582.25 L380.74,567.68 L328.92,567.86 L328.77,640.42 L287.26,640.91 L286.14,640.23 L278.10,639.28 L276.99,639.49 L275.91,640.69 L275.07,641.02 L272.31,641.11 L269.36,640.60 L260.79,637.46 L255.32,630.17 L255.60,627.79 L257.16,623.46 L258.79,621.62 L260.08,618.72 L260.75,614.38 L261.30,602.17 L256.61,588.36 L253.08,579.01 L262.44,575.93 L268.82,572.89 Z" fill="#3d8fc4" fill-opacity="0.92" stroke="#9ecae8" stroke-width="1.35" stroke-linejoin="round"/>
  <path d="M1042.70,200.01 L1071.77,200.04 L1068.95,224.23 L1068.81,340.54 L1065.36,384.51 L1068.20,398.94 L1068.01,457.07 L1066.36,515.32 L1060.92,515.31 L1060.92,550.42 L1042.71,548.90 L1042.71,478.13 L917.25,478.13 L917.25,434.09 L917.24,227.22 L917.24,174.55 L917.24,75.01 L917.25,-24.22 L959.97,-24.34 L987.44,-23.39 L1042.70,-23.35 L1042.95,27.18 L1042.70,169.64 L1042.70,200.01 Z" fill="#4a9fd4" fill-opacity="0.92" stroke="#9ecae8" stroke-width="1.35" stroke-linejoin="round"/>
  <path d="M830.28,728.82 L742.97,727.91 L674.19,727.91 L674.26,593.46 L676.19,601.07 L694.30,611.19 L726.15,611.15 L760.79,611.18 L778.01,611.04 L778.42,567.47 L830.42,567.54 L833.61,567.64 L868.87,567.44 L879.77,588.18 L884.46,603.58 L912.21,648.13 L929.40,626.81 L954.84,618.78 L967.71,612.87 L967.68,726.74 L967.34,726.73 L911.43,726.78 L901.48,726.74 L901.48,727.17 L887.99,727.14 L830.28,728.82 Z" fill="#3d8fc4" fill-opacity="0.92" stroke="#9ecae8" stroke-width="1.35" stroke-linejoin="round"/>
  <path d="M848.11,876.46 L848.08,858.52 L849.06,858.51 L967.25,857.63 L965.84,924.24 L915.52,924.29 L879.42,924.33 L859.13,923.11 L814.21,908.72 L814.22,892.76 L848.16,892.67 L848.11,876.46 Z" fill="#4a9fd4" fill-opacity="0.92" stroke="#9ecae8" stroke-width="1.35" stroke-linejoin="round"/>
  <path d="M253.35,692.45 L260.20,689.46 L260.46,689.53 L263.51,689.93 L263.61,689.94 L270.75,690.83 L270.72,690.67 L290.61,675.16 L290.71,675.13 L295.82,665.62 L295.82,665.58 L296.29,661.16 L295.34,650.15 L288.19,641.48 L287.26,640.91 L328.77,640.42 L328.92,567.86 L380.74,567.68 L380.74,582.25 L485.14,582.27 L485.26,607.40 L485.14,728.22 L485.16,806.24 L458.50,797.80 L331.77,758.50 L237.62,730.00 L238.33,709.45 L238.67,708.75 L240.02,708.12 L242.93,708.13 L247.75,702.56 L248.60,701.58 L253.35,692.45 Z" fill="#3d8fc4" fill-opacity="0.92" stroke="#9ecae8" stroke-width="1.35" stroke-linejoin="round"/>
  <path d="M1202.40,143.19 L1202.39,155.98 L1202.39,155.99 L1202.39,162.20 L1202.39,163.69 L1202.35,207.73 L1202.35,208.11 L1202.31,219.45 L1202.31,219.47 L1202.38,281.64 L1202.42,317.60 L1202.37,381.23 L1202.36,390.72 L1202.36,390.75 L1202.29,515.23 L1151.87,515.35 L1127.22,536.23 L1076.31,563.73 L1060.92,550.42 L1060.92,515.31 L1066.36,515.32 L1068.01,457.07 L1068.20,398.94 L1065.36,384.51 L1068.81,340.54 L1068.95,224.23 L1071.77,200.04 L1042.70,200.01 L1042.70,169.64 L1042.95,27.18 L1042.70,-23.35 L1146.32,-23.55 L1146.85,-23.54 L1164.91,-23.57 L1165.22,-23.56 L1166.03,-23.56 L1168.79,-23.58 L1170.97,-23.57 L1179.78,-23.57 L1202.53,-23.53 L1202.52,-18.58 L1202.52,-18.48 L1202.49,-2.78 L1202.49,-2.71 L1202.40,143.19 Z" fill="#4a9fd4" fill-opacity="0.92" stroke="#9ecae8" stroke-width="1.35" stroke-linejoin="round"/>
  <path d="M868.87,567.44 L849.89,532.06 L838.40,544.63 L831.58,541.17 L810.40,515.49 L813.26,507.59 L800.12,491.54 L803.07,480.92 L792.78,478.16 L795.61,452.86 L754.98,451.08 L765.22,413.49 L782.68,399.15 L791.50,394.82 L796.58,400.81 L783.49,408.04 L804.77,405.00 L804.07,413.54 L809.10,406.86 L833.58,402.31 L850.94,415.37 L859.37,411.82 L900.96,433.44 L910.99,426.44 L917.25,434.09 L917.25,478.13 L1042.71,478.13 L1042.71,548.90 L1042.71,567.47 L985.78,573.97 L968.96,581.56 L966.34,596.02 L975.65,612.52 L967.71,612.87 L954.84,618.78 L929.40,626.81 L912.21,648.13 L884.46,603.58 L879.77,588.18 L868.87,567.44 Z" fill="#3d8fc4" fill-opacity="0.92" stroke="#9ecae8" stroke-width="1.35" stroke-linejoin="round"/>
  <path d="M742.97,727.91 L830.28,728.82 L887.99,727.14 L901.48,727.17 L901.48,726.74 L911.43,726.78 L967.34,726.73 L967.34,728.31 L967.29,741.20 L967.25,857.63 L849.06,858.51 L848.08,858.52 L848.11,876.46 L848.16,892.67 L814.22,892.76 L814.21,908.72 L778.60,897.31 L667.10,862.16 L563.23,830.16 L519.92,817.23 L485.16,806.24 L485.14,728.22 L674.19,727.91 L742.97,727.91 Z" fill="#4a9fd4" fill-opacity="0.92" stroke="#9ecae8" stroke-width="1.35" stroke-linejoin="round"/>
  <path d="M365.26,-23.75 L379.42,-23.69 L379.42,-23.68 L546.60,-23.72 L557.83,-23.74 L606.27,-23.81 L614.77,-23.80 L617.09,-23.81 L617.88,-23.80 L618.18,-23.80 L597.81,53.32 L604.25,62.46 L600.36,67.09 L602.93,77.96 L594.26,86.43 L587.16,85.71 L575.71,95.91 L539.48,103.60 L518.06,115.75 L507.67,118.26 L502.33,128.61 L487.47,127.40 L481.75,136.83 L487.95,150.05 L489.05,166.28 L485.14,176.92 L485.10,222.53 L485.34,310.84 L485.21,424.96 L479.02,429.29 L450.75,426.88 L440.12,439.49 L368.51,434.67 L350.59,427.41 L344.13,419.70 L340.35,417.69 L329.51,411.00 L316.91,402.62 L298.02,368.82 L295.84,362.34 L281.27,349.86 L267.83,332.61 L267.47,331.77 L267.21,329.41 L268.19,326.37 L268.50,313.18 L268.47,312.22 L267.83,310.51 L267.75,308.24 L267.42,306.13 L269.68,295.02 L273.50,290.61 L275.98,289.95 L276.95,289.32 L277.92,287.65 L278.45,283.59 L278.50,280.17 L274.04,256.46 L272.64,251.71 L268.82,242.36 L264.66,239.07 L262.96,236.55 L260.37,228.94 L260.52,227.38 L260.81,225.46 L261.46,223.77 L264.36,210.58 L264.42,208.69 L263.74,207.44 L260.53,203.64 L258.40,201.90 L256.58,193.70 L255.34,175.05 L255.69,168.86 L255.92,168.35 L255.60,163.87 L251.39,152.76 L249.34,146.31 L247.33,129.01 L249.13,127.08 L250.58,126.13 L268.05,119.78 L278.04,118.23 L287.87,118.29 L309.91,119.89 L312.53,121.22 L318.73,125.94 L321.72,129.57 L322.33,130.78 L322.93,132.47 L324.77,135.04 L329.70,139.25 L331.46,140.21 L333.78,141.15 L334.70,141.20 L337.98,140.97 L347.94,139.59 L348.83,139.02 L350.60,136.68 L352.68,130.62 L353.62,126.49 L363.18,112.32 L363.63,111.91 L365.89,111.12 L365.84,101.67 L365.61,95.14 L365.96,81.38 L365.94,64.39 L365.26,33.81 L365.26,9.74 L365.26,2.55 L365.26,-23.75 Z" fill="#3d8fc4" fill-opacity="0.92" stroke="#9ecae8" stroke-width="1.35" stroke-linejoin="round"/>
  <path d="M731.35,475.61 L680.71,470.08 L665.33,493.94 L664.70,494.26 L664.04,495.01 L662.09,497.82 L651.08,495.04 L583.82,478.15 L485.17,478.26 L485.24,477.96 L485.21,424.96 L485.34,310.84 L485.10,222.53 L485.87,222.52 L487.41,222.11 L490.59,222.02 L511.81,226.14 L516.23,230.80 L545.03,245.14 L548.79,251.29 L582.00,259.62 L592.04,258.74 L611.68,270.15 L629.20,271.00 L634.54,267.29 L634.28,285.87 L652.11,286.06 L652.31,315.37 L740.18,314.84 L745.43,313.99 L745.42,343.76 L783.19,343.89 L782.68,399.15 L765.22,413.49 L754.98,451.08 L795.61,452.86 L792.78,478.16 L754.22,478.16 L731.35,475.61 Z" fill="#4a9fd4" fill-opacity="0.92" stroke="#9ecae8" stroke-width="1.35" stroke-linejoin="round"/>
  </g>
</svg>